<?xml version="1.0" encoding="utf-8"?>
<!-- Generator: Adobe Illustrator 21.1.0, SVG Export Plug-In . SVG Version: 6.00 Build 0)  -->
<svg version="1.1" id="Слой_2" xmlns="http://www.w3.org/2000/svg" xmlns:xlink="http://www.w3.org/1999/xlink" x="0px" y="0px"
	 viewBox="0 0 101.5 80.9" style="enable-background:new 0 0 101.5 80.9;" xml:space="preserve">
<style type="text/css">
	.st0{display:none;fill:none;stroke:#000000;stroke-width:2;stroke-miterlimit:10;}
	.st1{fill:none;stroke:#000000;stroke-width:2;stroke-miterlimit:10;}
	.st2{fill:none;stroke:#000000;stroke-width:2;stroke-linecap:round;stroke-miterlimit:10;}
</style>
<circle class="st0" cx="50.6" cy="56.4" r="4.7"/>
<circle class="st1" cx="50.8" cy="24.8" r="17.4"/>
<circle class="st1" cx="50.8" cy="24.8" r="23"/>
<circle class="st1" cx="50.8" cy="56.4" r="8.6"/>
<path d="M50.7,11.3L50.7,11.3c-0.6,0-1-0.8-1-1.7V9.1c0-1,0.5-1.7,1-1.7l0,0c0.6,0,1,0.8,1,1.7v0.4C51.7,10.5,51.3,11.3,50.7,11.3z"
	/>
<path d="M50.7,42.1L50.7,42.1c-0.6,0-1-0.8-1-1.8v-0.4c0-1,0.5-1.7,1-1.7l0,0c0.6,0,1,0.8,1,1.7v0.4C51.7,41.3,51.3,42.1,50.7,42.1z
	"/>
<path d="M37.4,24.4L37.4,24.4c0,0.6-0.8,1.1-1.8,1.1h-0.4c-1,0-1.8-0.5-1.8-1l0,0c0-0.6,0.8-1,1.8-1h0.4
	C36.6,23.4,37.4,23.9,37.4,24.4z"/>
<path d="M68,24.8L68,24.8c0,0.6-0.8,1-1.8,1h-0.4c-1,0-1.8-0.5-1.8-1l0,0c0-0.6,0.8-1,1.8-1h0.4C67.2,23.8,68,24.3,68,24.8z"/>
<path d="M50.7,15.9L50.7,15.9c0.6,0,1,0.8,1,1.7v6.5c0,1-0.4,1.7-1,1.7l0,0c-0.6,0-1-0.8-1-1.7v-6.5C49.8,16.7,50.2,15.9,50.7,15.9z
	"/>
<path d="M50.4,24.8L50.4,24.8c0.4-0.4,1.3-0.1,1.9,0.5l4.6,4.6c0.7,0.7,0.9,1.5,0.5,1.9l0,0c-0.4,0.4-1.3,0.1-1.9-0.5l-4.6-4.6
	C50.3,26,50,25.1,50.4,24.8z"/>
<path class="st2" d="M5.8,59.4c0.6,4.5,5.7,6.2,10.9,5.3c4.9-0.9,8.9-4.3,11.2-8.7c8.5-16.3-3.6-30.4-3.6-30.4"/>
<path class="st2" d="M95.5,59.4c-0.6,4.5-5.7,6.2-10.9,5.3c-4.9-0.9-8.9-4.3-11.2-8.7C64.9,39.7,77,25.6,77,25.6"/>
<path class="st1" d="M98.2,74.4H2.3c-0.7,0-0.3-0.7,0-1.4l3.2-7.3c0.2-0.4,0.5-0.6,0.9-0.6h88.8c0.4,0,0.8,0.2,0.9,0.6l3,7.3
	C99.4,73.6,98.9,74.4,98.2,74.4z"/>
<path class="st1" d="M2.7,79.1h14.6c0.6,0,1-0.4,1-1v-2.8c0-0.6-0.4-1-1-1H2.7c-0.6,0-1,0.4-1,1v2.8C1.7,78.7,2.2,79.1,2.7,79.1z"/>
<path class="st1" d="M84.2,79.1h14.6c0.6,0,1-0.4,1-1v-2.8c0-0.6-0.4-1-1-1H84.2c-0.6,0-1,0.4-1,1v2.8
	C83.2,78.7,83.6,79.1,84.2,79.1z"/>
</svg>
