<?xml version="1.0" encoding="utf-8"?>
<!-- Generator: Adobe Illustrator 21.1.0, SVG Export Plug-In . SVG Version: 6.00 Build 0)  -->
<svg version="1.1" id="Слой_2" xmlns="http://www.w3.org/2000/svg" xmlns:xlink="http://www.w3.org/1999/xlink" x="0px" y="0px"
	 viewBox="0 0 96.7 95.7" style="enable-background:new 0 0 96.7 95.7;" xml:space="preserve">
<style type="text/css">
	.st0{fill:none;stroke:#000000;stroke-width:2;stroke-linecap:round;stroke-linejoin:round;stroke-miterlimit:10;}
	.st1{fill:none;stroke:#000000;stroke-width:2;stroke-linecap:round;stroke-miterlimit:10;}
	.st2{fill:none;stroke:#000000;stroke-width:2;stroke-miterlimit:10;}
</style>
<path class="st0" d="M1.8,36.8V8.1c0-3.5,2.9-6.4,6.4-6.4h80.5c3.5,0,6.4,2.9,6.4,6.4v41.7"/>
<line class="st1" x1="81.9" y1="10.5" x2="85.5" y2="14.1"/>
<line class="st1" x1="85.5" y1="24.3" x2="71.9" y2="10.7"/>
<line class="st0" x1="47.3" y1="55.8" x2="69.1" y2="55.8"/>
<line class="st0" x1="47.3" y1="71.8" x2="69.1" y2="71.8"/>
<circle cx="48.5" cy="63.8" r="1"/>
<circle cx="85.5" cy="87.8" r="1"/>
<circle cx="21.3" cy="87.8" r="1"/>
<line class="st0" x1="46.6" y1="87.8" x2="50.4" y2="87.8"/>
<path class="st0" d="M56.4,77.6v10.1c0,0,4.5,0,5.3,0c1,0,7.4-0.3,7.4,6.2H46.4"/>
<path class="st2" d="M37.2,94H5.4c-2,0-3.6-1.6-3.6-3.6V46.8c0-2,1.6-3.6,3.6-3.6h31.9c2,0,3.6,1.6,3.6,3.6v43.5
	C40.9,92.3,39.2,94,37.2,94z"/>
<path class="st2" d="M91.3,94h-12c-2,0-3.6-1.6-3.6-3.6v-31c0-2,1.6-3.6,3.6-3.6h12.1c2,0,3.6,1.6,3.6,3.6v30.9
	C95,92.3,93.4,94,91.3,94z"/>
</svg>
