<?xml version="1.0" encoding="utf-8"?>
<!-- Generator: Adobe Illustrator 21.1.0, SVG Export Plug-In . SVG Version: 6.00 Build 0)  -->
<svg version="1.1" id="Слой_3" xmlns="http://www.w3.org/2000/svg" xmlns:xlink="http://www.w3.org/1999/xlink" x="0px" y="0px"
	 viewBox="0 0 98.9 98.9" style="enable-background:new 0 0 98.9 98.9;" xml:space="preserve">
<style type="text/css">
	.st0{fill:none;stroke:#000000;stroke-width:2;stroke-linecap:round;stroke-linejoin:round;stroke-miterlimit:10;}
</style>
<polygon class="st0" points="85.8,59.2 90.8,73.3 76.1,76.1 73.3,90.8 59.2,85.8 49.5,97.2 39.7,85.8 25.6,90.8 22.9,76.1 8.1,73.3 
	13.1,59.2 1.7,49.5 13.1,39.7 8.1,25.6 22.9,22.9 25.6,8.1 39.7,13.1 49.5,1.8 59.2,13.1 73.3,8.1 76.1,22.9 90.8,25.6 85.8,39.7 
	97.2,49.5 "/>
<g>
	<path class="st0" d="M40,40.2c0,0,1.5-9.8,10.7-10.8c0.1,0,0.2,0,0.3,0c6.5-0.6,11.2,4.8,10.1,11.2c-0.5,3.1-1.7,5.9-4.3,9
		c-5.4,6.4-6.7,6.7-7.8,10.3c-0.5,1.6-0.5,5.5-0.5,5.5"/>
	<line class="st0" x1="48.6" y1="73.3" x2="48.6" y2="72.7"/>
</g>
</svg>
