<?xml version="1.0" encoding="utf-8"?>
<!-- Generator: Adobe Illustrator 21.1.0, SVG Export Plug-In . SVG Version: 6.00 Build 0)  -->
<svg version="1.1" id="Слой_1" xmlns="http://www.w3.org/2000/svg" xmlns:xlink="http://www.w3.org/1999/xlink" x="0px" y="0px"
	 viewBox="0 0 83 100.8" style="enable-background:new 0 0 83 100.8;" xml:space="preserve">
<style type="text/css">
	.st0{fill:none;stroke:#000000;stroke-width:2;stroke-linecap:round;stroke-linejoin:round;stroke-miterlimit:10;}
</style>
<g id="Слой_3">
	<g>
		<path class="st0" d="M6.9,55.4l-5-24.3c-0.8-3.8,1.7-7.5,5.4-8.3l0,0c3.8-0.8,7.5,1.7,8.3,5.4l5,24.3"/>
		<path class="st0" d="M18.7,43.2l-5-24.3c-0.8-3.8,1.7-7.5,5.4-8.3l0,0c3.8-0.8,7.5,1.7,8.3,5.4l6.3,31"/>
		<path class="st0" d="M31.1,34.5l-5-24.3c-0.8-3.8,1.7-7.5,5.4-8.3l0,0c3.8-0.8,7.5,1.7,8.3,5.4l5,24.3"/>
		<path class="st0" d="M47.4,44.4l-6.1-29.7c-0.8-3.8,1.7-7.5,5.4-8.3l0,0c3.8-0.8,7.5,1.7,8.3,5.4l8.4,41"/>
		<path class="st0" d="M77.9,57.2c-3.8,11.2-7.5,36.1-32,41.2l0,0C30,101.7,14.2,91.3,11,75.3l-3.5-17l-0.6-3"/>
		<path class="st0" d="M63.6,53l4.6-8.9c1.8-3.4,6-4.8,9.4-3l0,0c3.4,1.8,4.5,5.8,3,9.4c-2,5-2.7,6.8-2.7,6.8"/>
		<path class="st0" d="M57.4,75.6"/>
	</g>
</g>
<g id="Слой_2">
</g>
</svg>
