<?xml version="1.0" encoding="utf-8"?>
<!-- Generator: Adobe Illustrator 21.1.0, SVG Export Plug-In . SVG Version: 6.00 Build 0)  -->
<svg version="1.1" id="Слой_3" xmlns="http://www.w3.org/2000/svg" xmlns:xlink="http://www.w3.org/1999/xlink" x="0px" y="0px"
	 viewBox="0 0 99.4 74.6" style="enable-background:new 0 0 99.4 74.6;" xml:space="preserve">
<style type="text/css">
	.st0{fill:none;stroke:#000000;stroke-width:2;stroke-linecap:round;stroke-linejoin:round;stroke-miterlimit:10;}
	.st1{fill:none;stroke:#000000;stroke-width:2;stroke-miterlimit:10;}
	.st2{fill:none;stroke:#000000;stroke-width:2;stroke-linecap:round;stroke-miterlimit:10;}
</style>
<g>
	<polyline class="st0" points="77.7,36.3 77.7,72.9 21.6,72.9 21.6,36.3 	"/>
	<path class="st1" d="M29.2,40.1h20.9c0.6,0,1.2,0.5,1.2,1.2v14.1c0,0.6-0.5,1.2-1.2,1.2H29.2c-0.6,0-1.2-0.5-1.2-1.2V41.3
		C28,40.6,28.5,40.1,29.2,40.1z"/>
	<path class="st1" d="M58.4,46.7h11.7c0.4,0,0.8,0.4,0.8,0.8v24.7c0,0.4-0.4,0.8-0.8,0.8H58.4c-0.4,0-0.8-0.4-0.8-0.8V47.5
		C57.6,47,58,46.7,58.4,46.7z"/>
	<path class="st1" d="M58.7,1.8h18c0.4,0,0.8,0.4,0.8,0.8V8c0,0.4-0.4,0.8-0.8,0.8h-18c-0.4,0-0.8-0.4-0.8-0.8V2.5
		C57.9,2.1,58.3,1.8,58.7,1.8z"/>
	<path class="st2" d="M61.1,15.8V9.5c0-0.4,0.4-0.8,0.8-0.8h11.7c0.4,0,0.8,0.4,0.8,0.8v14.4"/>
	<line class="st0" x1="26.1" y1="56.6" x2="53.2" y2="56.6"/>
	<line class="st0" x1="28.1" y1="48.3" x2="51.3" y2="48.3"/>
	<line class="st0" x1="22.9" y1="66.4" x2="56.5" y2="66.4"/>
	<line class="st0" x1="71.4" y1="66.4" x2="76.6" y2="66.4"/>
	<line class="st0" x1="63.6" y1="59.8" x2="66.9" y2="59.8"/>
	<line class="st0" x1="39.7" y1="56.6" x2="39.7" y2="40.3"/>
	<polyline class="st0" points="49.3,10.5 16.9,29.8 16.9,38.1 49.3,18.8 	"/>
	<polyline class="st0" points="49.7,10.5 82,29.8 82,38.1 49.7,18.8 	"/>
	<polygon class="st0" points="8.4,72.9 1.7,72.9 1.7,56.6 5,51.3 8.4,56.6 	"/>
	<polygon class="st0" points="15,72.9 8.4,72.9 8.4,56.6 11.7,51.3 15,56.6 	"/>
	<polygon class="st0" points="21.6,72.9 15,72.9 15,56.6 18.3,51.3 21.6,56.6 	"/>
	<polygon class="st0" points="84.4,72.9 77.7,72.9 77.7,56.6 81,51.3 84.4,56.6 	"/>
	<polygon class="st0" points="91,72.9 84.4,72.9 84.4,56.6 87.7,51.3 91,56.6 	"/>
	<polygon class="st0" points="97.6,72.9 91,72.9 91,56.6 94.3,51.3 97.6,56.6 	"/>
</g>
</svg>
