<?xml version="1.0" encoding="utf-8"?>
<!-- Generator: Adobe Illustrator 21.1.0, SVG Export Plug-In . SVG Version: 6.00 Build 0)  -->
<svg version="1.1" id="Слой_1" xmlns="http://www.w3.org/2000/svg" xmlns:xlink="http://www.w3.org/1999/xlink" x="0px" y="0px"
	 viewBox="0 0 100 101.3" style="enable-background:new 0 0 100 101.3;" xml:space="preserve">
<style type="text/css">
	.st0{display:none;}
	.st1{fill:none;stroke:#000000;stroke-width:2;stroke-linecap:round;stroke-miterlimit:10;}
	.st2{fill:none;stroke:#000000;stroke-width:2;stroke-miterlimit:10;}
</style>
<g id="Слой_1_1_" class="st0">
</g>
<g id="Слой_2">
	<path class="st1" d="M27.2,43.7H4.8c-1.7,0-3-1.3-3-3v-20c0-1.7,1.3-3,3-3h84c1.7,0,3,1.3,3,3v20c0,1.7-1.3,3-3,3H66.2"/>
	<rect x="30.8" y="8.7" class="st2" width="32" height="9"/>
	<path class="st2" d="M63.8,8.7h-34c-1.7,0-3-1.3-3-3v-1c0-1.7,1.3-3,3-3h34c1.7,0,3,1.3,3,3v1C66.8,7.4,65.4,8.7,63.8,8.7z"/>
	<path class="st2" d="M56.8,48.7h-20c-1.7,0-3-1.3-3-3v-3c0-1.7,1.3-3,3-3h20c1.7,0,3,1.3,3,3v3C59.8,47.4,58.4,48.7,56.8,48.7z"/>
	<path class="st1" d="M47.8,88.7h-36c-1.7,0-3-1.3-3-3v-42"/>
	<line class="st1" x1="86.8" y1="43.7" x2="86.8" y2="54.4"/>
</g>
<g id="Слой_3">
	<ellipse transform="matrix(0.7071 -0.7071 0.7071 0.7071 -28.5986 66.3148)" class="st2" cx="65.7" cy="67.7" rx="16" ry="16"/>
	<path class="st2" d="M94.1,98.9L82,86.8c-0.8-0.8-0.8-2,0-2.8l0.7-0.7c0.8-0.8,2-0.8,2.8,0l12.1,12.1c0.8,0.8,0.8,2,0,2.8l-0.7,0.7
		C96.2,99.7,94.9,99.7,94.1,98.9z"/>
	<rect x="78.7" y="78.5" transform="matrix(0.7071 -0.7071 0.7071 0.7071 -34.1116 80.6025)" class="st2" width="3" height="6"/>
</g>
</svg>
