<?xml version="1.0" encoding="utf-8"?>
<!-- Generator: Adobe Illustrator 21.1.0, SVG Export Plug-In . SVG Version: 6.00 Build 0)  -->
<svg version="1.1" id="Слой_2" xmlns="http://www.w3.org/2000/svg" xmlns:xlink="http://www.w3.org/1999/xlink" x="0px" y="0px"
	 viewBox="0 0 96.2 101.5" style="enable-background:new 0 0 96.2 101.5;" xml:space="preserve">
<style type="text/css">
	.st0{fill:none;stroke:#000000;stroke-width:2;stroke-miterlimit:10;}
	.st1{fill:none;stroke:#000000;stroke-width:2;stroke-linecap:round;stroke-linejoin:round;stroke-miterlimit:10;}
	.st2{fill:none;stroke:#000000;stroke-width:2;stroke-linecap:round;stroke-miterlimit:10;}
</style>
<g>
	<circle class="st0" cx="73.8" cy="11.2" r="9.4"/>
	<path class="st1" d="M37.3,52.2C35.5,59.8,42,63.4,42,63.4l18.2,10.2l-3.1,20.1c-0.4,2.9,1.6,5.5,4.4,5.9l0,0
		c2.9,0.4,5.5-1.7,5.9-4.5L70.9,71c0.3-2.3-0.7-3.7-0.7-3.7s-12.9-9.9-15.6-11.9C58,50.3,63.7,43,63.7,43c0.2,0.3,3.8,7.7,5.5,11
		c0.9,1.8,1.6,2.4,2.9,2.8c1.2,0.4,17.8,0,17.8,0c2.5,0,4.6-2,4.6-4.6l0,0c0-2.5-2-4.6-4.6-4.6H77c0,0-6.2-15-6.6-16.4
		c0-0.2-0.1-0.3-0.1-0.5c-0.6-1.8-1.9-3.4-3.5-4.6c-3.2-2.3-5.4-3.3-6.4-3.8c-1.2-0.7-12.8-3.3-18-4.5c-4-1.1-4.9,0.7-5.9,1.4
		l-14.6,11c-2,1.5-2.4,4.4-0.9,6.4l0,0c1.5,2,4.4,2.4,6.4,0.9L39.9,28c0,0,7.3,1.4,9.1,2.3c1.2,0.8,0,2.8,0,2.8s-5.3,9.5-9.1,14.5
		c-3.2,4.3-2.9,6.3-2.9,6.3l-8.6,14.5H9.8c-2.9,0-5.2,2.3-5.2,5.2l0,0c0,2.9,2.3,5.2,5.2,5.2h23.1c0,0,3.5-0.2,4.5-1.6
		c4.3-6.2,7.9-11.7,7.9-11.7"/>
	<path class="st0" d="M63.7,43c0,0,7.5-8.6,5.8-13.8"/>
</g>
<line class="st2" x1="1.7" y1="15.1" x2="33.1" y2="15.1"/>
<line class="st2" x1="3.7" y1="29.1" x2="14.4" y2="29.1"/>
<line class="st2" x1="3.7" y1="48.8" x2="31.2" y2="48.8"/>
<line class="st2" x1="33.1" y1="5.6" x2="56.1" y2="5.6"/>
</svg>
