<?xml version="1.0" encoding="utf-8"?>
<!-- Generator: Adobe Illustrator 21.1.0, SVG Export Plug-In . SVG Version: 6.00 Build 0)  -->
<svg version="1.1" id="Слой_2" xmlns="http://www.w3.org/2000/svg" xmlns:xlink="http://www.w3.org/1999/xlink" x="0px" y="0px"
	 viewBox="0 0 99.3 96.5" style="enable-background:new 0 0 99.3 96.5;" xml:space="preserve">
<style type="text/css">
	.st0{fill:none;stroke:#000000;stroke-width:2;stroke-miterlimit:10;}
	.st1{fill:none;stroke:#000000;stroke-width:2;stroke-linecap:round;stroke-linejoin:round;stroke-miterlimit:10;}
	.st2{fill:none;stroke:#000000;stroke-width:2;stroke-linecap:round;stroke-miterlimit:10;}
</style>
<ellipse class="st0" cx="49.6" cy="33.1" rx="27.1" ry="7.1"/>
<path class="st1" d="M26.3,44.7c-2.5-1.1-5.2-3.6-5.2-6.4c0-1.4,0.4-2.8,1.2-3.9"/>
<path class="st1" d="M73,44.7c2.5-1.1,5.2-3.6,5.2-6.4c0-1.4-0.4-2.8-1.2-3.9"/>
<path class="st2" d="M22.5,31.6c0-16.5,12.1-29.8,27.1-29.8s27.1,13.3,27.1,29.8"/>
<line class="st1" x1="49.6" y1="2.1" x2="49.6" y2="15"/>
<g>
	<path class="st1" d="M31.9,76.1"/>
	<path class="st1" d="M1.8,94.7c-0.4-15,12-18.6,16.5-18.6c2.8,0,13.7,0,13.7,0h35.5"/>
</g>
<g>
	<path class="st1" d="M67.4,76.1"/>
	<path class="st1" d="M67.4,76.1c0,0,10.9,0,13.7,0c4.5,0,16.9,3.6,16.5,18.6"/>
</g>
<path class="st1" d="M63.5,76.8c0,7.7-6.2,13.9-13.9,13.9s-13.9-6.2-13.9-13.9"/>
<line class="st1" x1="19.1" y1="76.1" x2="19.1" y2="94.7"/>
<line class="st1" x1="27.4" y1="76.1" x2="27.4" y2="94.7"/>
<line class="st1" x1="71.9" y1="76.1" x2="71.9" y2="94.7"/>
<line class="st1" x1="79.8" y1="76.1" x2="79.8" y2="94.7"/>
<path class="st1" d="M20.2,70.4c2.6-1.5,4.2-4.1,4.2-7c0-3.6-2.6-6.7-6.2-7.9v7.4h-6v-7.4C8.6,56.6,6,59.7,6,63.4
	c0,2.9,1.7,5.5,4.2,7"/>
<line class="st1" x1="10.3" y1="76.9" x2="10.3" y2="70.8"/>
<line class="st1" x1="20.2" y1="70.8" x2="20.2" y2="75.9"/>
<circle class="st1" cx="82.9" cy="71.3" r="3.3"/>
<path class="st1" d="M82.9,50.6h-3.2c0,0-4,8.7-4.8,10.7s-2.1,6.6-1.5,13.7"/>
<path class="st1" d="M82.9,68V50.6H86c0,0,4,8.7,4.8,10.7s2.1,6.6,1.5,13.7v5.5"/>
<path class="st2" d="M71.8,38.2v16.4c0,6.4-5.2,11.6-11.6,11.6H39c-6.4,0-11.6-5.2-11.6-11.6V38.2"/>
</svg>
