<?xml version="1.0" encoding="utf-8"?>
<!-- Generator: Adobe Illustrator 21.1.0, SVG Export Plug-In . SVG Version: 6.00 Build 0)  -->
<svg version="1.1" id="Слой_3" xmlns="http://www.w3.org/2000/svg" xmlns:xlink="http://www.w3.org/1999/xlink" x="0px" y="0px"
	 viewBox="0 0 99.8 110.1" style="enable-background:new 0 0 99.8 110.1;" xml:space="preserve">
<style type="text/css">
	.st0{fill:#0B0B0B;}
	.st1{fill:none;stroke:#0B0B0B;stroke-width:3;stroke-linecap:round;stroke-linejoin:round;stroke-miterlimit:10;}
</style>
<path class="st0" d="M49.9,31L49.9,31c-0.8,0-1.5-0.7-1.5-1.5v-28c0-0.8,0.7-1.5,1.5-1.5l0,0c0.8,0,1.5,0.7,1.5,1.5v28
	C51.4,30.3,50.7,31,49.9,31z"/>
<path class="st1" d="M43.9,12.2c-23.9,3-42.4,23.3-42.4,48c0,26.7,21.7,48.4,48.4,48.4c26.7,0,48.4-21.7,48.4-48.4
	c0-24.7-18.5-45-42.4-48"/>
</svg>
