<?xml version="1.0" encoding="utf-8"?>
<!-- Generator: Adobe Illustrator 21.1.0, SVG Export Plug-In . SVG Version: 6.00 Build 0)  -->
<svg version="1.1" id="Слой_3" xmlns="http://www.w3.org/2000/svg" xmlns:xlink="http://www.w3.org/1999/xlink" x="0px" y="0px"
	 viewBox="0 0 100 100" style="enable-background:new 0 0 100 100;" xml:space="preserve">
<style type="text/css">
	.st0{fill:none;stroke:#000000;stroke-width:2;stroke-linecap:round;stroke-linejoin:round;stroke-miterlimit:10;}
	.st1{fill:none;stroke:#000000;stroke-width:2;stroke-miterlimit:10;}
</style>
<g>
	<path class="st0" d="M77.7,18.8H89c5.5,0,10,4.5,10,10v48.5c0,5.5-4.5,10-10,10H11c-5.5,0-10-4.5-10-10V28.8c0-5.5,4.5-10,10-10
		h31.1"/>
	<path class="st0" d="M42.1,18.8L42.1,18.8c0-6.1,4.9-11,11-11h13.6c6.1,0,11,4.9,11,11v0"/>
	<path class="st1" d="M30.1,18.8H10.5v-2.5c0-1.7,1.3-3,3-3h13.5c1.7,0,3,1.3,3,3V18.8z"/>
	<circle class="st0" cx="13.5" cy="31.3" r="4.6"/>
	<circle class="st0" cx="59.9" cy="49.4" r="24.9"/>
</g>
</svg>
