<?xml version="1.0" encoding="utf-8"?>
<!-- Generator: Adobe Illustrator 21.1.0, SVG Export Plug-In . SVG Version: 6.00 Build 0)  -->
<svg version="1.1" id="Слой_2" xmlns="http://www.w3.org/2000/svg" xmlns:xlink="http://www.w3.org/1999/xlink" x="0px" y="0px"
	 viewBox="0 0 96.8 94.2" style="enable-background:new 0 0 96.8 94.2;" xml:space="preserve">
<style type="text/css">
	.st0{fill:none;stroke:#000000;stroke-width:2;stroke-miterlimit:10;}
	.st1{fill:none;stroke:#000000;stroke-width:2;stroke-linecap:round;stroke-linejoin:round;stroke-miterlimit:10;}
</style>
<g>
	<path class="st0" d="M68.6,20.9L20.9,68.6c-1.3,1.3-3.5,1.3-4.9,0L2.7,55.3c-1.3-1.3-1.3-3.5,0-4.9L50.5,2.8c1.3-1.3,3.5-1.3,4.9,0
		L68.6,16C69.9,17.4,69.9,19.5,68.6,20.9z"/>
	<polyline class="st1" points="64.4,6.9 76.3,18.8 53.2,50 62.6,59.4 	"/>
	<path class="st1" d="M94.4,85.9l-5.8,5.8c-1,1-2.5,1-3.5,0L64.2,70.8c-1-1-1-2.5,0-3.5l5.8-5.8c1-1,2.5-1,3.5,0l20.9,20.9
		C95.3,83.4,95.3,85,94.4,85.9z"/>
	<path class="st1" d="M70.1,61.3L64,67.5c-0.4,0.4-1,0.4-1.4,0l-3.3-3.3c-0.4-0.4-0.4-1,0-1.4l6.1-6.1c0.4-0.4,1-0.4,1.4,0l3.3,3.3
		C70.5,60.3,70.5,60.9,70.1,61.3z"/>
</g>
</svg>
