<?xml version="1.0" encoding="utf-8"?>
<!-- Generator: Adobe Illustrator 21.1.0, SVG Export Plug-In . SVG Version: 6.00 Build 0)  -->
<svg version="1.1" id="Слой_2" xmlns="http://www.w3.org/2000/svg" xmlns:xlink="http://www.w3.org/1999/xlink" x="0px" y="0px"
	 viewBox="0 0 100 79.8" style="enable-background:new 0 0 100 79.8;" xml:space="preserve">
<style type="text/css">
	.st0{fill:none;stroke:#000000;stroke-width:2;stroke-miterlimit:10;}
	.st1{fill:none;stroke:#000000;stroke-width:2;stroke-linecap:square;stroke-miterlimit:10;}
	.st2{fill:none;stroke:#000000;stroke-width:2;stroke-linecap:round;stroke-miterlimit:10;}
</style>
<path class="st0" d="M99.1,71.2H12.4V6.6c0-1.9-0.4-3.7-1.2-5.4l0,0h75.5c6.9,0,12.4,5.6,12.4,12.4V71.2z"/>
<path class="st1" d="M12.4,71.2V5.1c0-2.2-1.8-4-4-4h0C4.3,1.1,1,4.4,1,8.5V79h89.7l7.8-6.9"/>
<polyline class="st2" points="6,10.9 6,75.1 94.3,75.1 "/>
<path class="st2" d="M50.4,43h-30c-0.7,0-1.3-0.6-1.3-1.3V21.2c0-0.7,0.6-1.3,1.3-1.3h30c0.7,0,1.3,0.6,1.3,1.3v20.5
	C51.7,42.4,51.1,43,50.4,43z"/>
<path d="M70.2,14.2H35.8c-0.6,0-1-0.4-1-1v0c0-0.6,0.4-1,1-1h34.5c0.6,0,1,0.4,1,1v0C71.2,13.8,70.8,14.2,70.2,14.2z"/>
<path d="M88.5,22.2H56.4c-0.6,0-1-0.4-1-1v0c0-0.6,0.4-1,1-1h32.1c0.6,0,1,0.4,1,1v0C89.5,21.7,89.1,22.2,88.5,22.2z"/>
<path d="M88.5,29.1H56.4c-0.6,0-1-0.4-1-1v0c0-0.6,0.4-1,1-1h32.1c0.6,0,1,0.4,1,1v0C89.5,28.6,89.1,29.1,88.5,29.1z"/>
<path d="M88.5,36H56.4c-0.6,0-1-0.4-1-1v0c0-0.6,0.4-1,1-1h32.1c0.6,0,1,0.4,1,1v0C89.5,35.6,89.1,36,88.5,36z"/>
<path d="M88.5,42.9H56.4c-0.6,0-1-0.4-1-1l0,0c0-0.6,0.4-1,1-1h32.1c0.6,0,1,0.4,1,1l0,0C89.5,42.5,89.1,42.9,88.5,42.9z"/>
<path d="M88.5,49.9H20.1c-0.6,0-1-0.4-1-1l0,0c0-0.6,0.4-1,1-1h68.4c0.6,0,1,0.4,1,1l0,0C89.5,49.4,89.1,49.9,88.5,49.9z"/>
<path d="M88.5,56.8H20.1c-0.6,0-1-0.4-1-1v0c0-0.6,0.4-1,1-1h68.4c0.6,0,1,0.4,1,1v0C89.5,56.3,89.1,56.8,88.5,56.8z"/>
<path d="M67.7,63.7H43.5c-0.6,0-1-0.4-1-1v0c0-0.6,0.4-1,1-1h24.2c0.6,0,1,0.4,1,1v0C68.7,63.3,68.2,63.7,67.7,63.7z"/>
</svg>
