<?xml version="1.0" encoding="utf-8"?>
<!-- Generator: Adobe Illustrator 21.1.0, SVG Export Plug-In . SVG Version: 6.00 Build 0)  -->
<svg version="1.1" id="Слой_3" xmlns="http://www.w3.org/2000/svg" xmlns:xlink="http://www.w3.org/1999/xlink" x="0px" y="0px"
	 viewBox="0 0 100 100" style="enable-background:new 0 0 100 100;" xml:space="preserve">
<style type="text/css">
	.st0{fill:#0B0B0B;}
	.st1{fill:none;stroke:#0B0B0B;stroke-width:2;stroke-linecap:round;stroke-linejoin:round;stroke-miterlimit:10;}
</style>
<path class="st0" d="M67.5,40.2c-1.3,1.5-8.7,10.6-20.3,19.9c-9.6,7.8-24.6,16.8-24.6,16.8s9.1-15.1,17-24.8
	c9.3-11.5,18.2-18.8,19.7-20.1c3.3-2.8,17.6-14,19.9-11.8S70,37.3,67.5,40.2z"/>
<path class="st1" d="M68.4,25c0,0-2.2-8.4-10.9-1.1S46.6,39.3,46.6,39.3l-0.8,2.4l-5.3-0.3"/>
<line class="st1" x1="70.3" y1="23.9" x2="75.6" y2="29.3"/>
<line class="st1" x1="36.3" y1="68.1" x2="31.5" y2="63.2"/>
<line class="st1" x1="27.5" y1="69.2" x2="30.4" y2="72"/>
</svg>
