<?xml version="1.0" encoding="utf-8"?>
<!-- Generator: Adobe Illustrator 21.1.0, SVG Export Plug-In . SVG Version: 6.00 Build 0)  -->
<svg version="1.1" id="Слой_3" xmlns="http://www.w3.org/2000/svg" xmlns:xlink="http://www.w3.org/1999/xlink" x="0px" y="0px"
	 viewBox="0 0 89.9 100" style="enable-background:new 0 0 89.9 100;" xml:space="preserve">
<style type="text/css">
	.st0{fill:none;stroke:#000000;stroke-width:2;stroke-miterlimit:10;}
	.st1{fill:none;stroke:#000000;stroke-width:2;stroke-linejoin:round;stroke-miterlimit:10;}
	.st2{fill:none;stroke:#000000;stroke-width:2;stroke-linecap:round;stroke-linejoin:round;stroke-miterlimit:10;}
</style>
<path class="st0" d="M88.7,99.1H1.2C1.1,99.1,1,99,1,98.9V25.8c0-0.1,0.1-0.2,0.2-0.2h87.5c0.1,0,0.2,0.1,0.2,0.2v73.1
	C88.9,99,88.8,99.1,88.7,99.1z"/>
<g>
	<polygon class="st1" points="1,25.6 12.9,25.6 12.9,14.1 	"/>
	<polygon class="st1" points="7.2,7.2 12.9,14.1 7.1,19.7 	"/>
</g>
<g>
	<polygon class="st1" points="88.9,25.6 77,25.6 77,14.1 	"/>
	<polygon class="st1" points="82.7,7.2 77,14.1 82.8,19.7 	"/>
</g>
<line class="st2" x1="44.5" y1="7.2" x2="82.7" y2="7.2"/>
<line class="st2" x1="7.2" y1="7.2" x2="29.4" y2="7.2"/>
<circle class="st1" cx="29.7" cy="33.5" r="3.8"/>
<circle class="st1" cx="60.4" cy="33.5" r="3.8"/>
<path class="st2" d="M60.4,33.6v15.2c0,8.2-7,14.8-15.1,14.8h-0.8c-8.2,0-14.8-6.7-14.8-14.8V33.6"/>
<path class="st2" d="M11.9,25.3L35.6,1.6c0.8-0.8,2.1-0.8,2.8,0l23.7,23.7"/>
<path class="st2" d="M52.5,14.7l5.8-5.8c0.8-0.8,2.1-0.8,2.8,0l16.7,16.7"/>
</svg>
