<svg id="group" xmlns="http://www.w3.org/2000/svg" width="93" height="28" viewBox="0 0 93 28"><defs><style>.cls-1{fill:#139ad6;}.cls-2{fill:#263b80;}.cls-3{fill:#232c65;}</style></defs><title>paypal_93*28px</title><g id="group1"><path class="cls-1" d="M71.34,8.44H66.43a1,1,0,0,0-.72.58l-2,12.71a.38.38,0,0,0,.43.43h2.6a.38.38,0,0,0,.44-.43l.57-3.61a.67.67,0,0,1,.73-.58H70c3.33,0,5.2-1.59,5.64-4.77a3.79,3.79,0,0,0-.58-3.18,5.86,5.86,0,0,0-3.76-1.15m.58,4.77c-.29,1.73-1.59,1.73-2.89,1.73h-.86l.57-3.32c0-.15.15-.29.44-.29h.29c.86,0,1.73,0,2.16.58.29.14.29.57.29,1.3"/><path class="cls-2" d="M36,8.44H31a1,1,0,0,0-.72.58l-2,12.71a.38.38,0,0,0,.43.43H31a1,1,0,0,0,.73-.58l.57-3.46a.67.67,0,0,1,.73-.58h1.59q5,0,5.63-4.77a3.79,3.79,0,0,0-.58-3.18A5.56,5.56,0,0,0,36,8.44m.57,4.77c-.29,1.73-1.59,1.73-2.89,1.73h-.72l.58-3.32c0-.15.14-.29.43-.29h.29c.87,0,1.74,0,2.17.58a1.54,1.54,0,0,1,.14,1.3"/><path class="cls-2" d="M50.83,13.06H48.52c-.14,0-.43.15-.43.29l-.15.72-.14-.29a3.4,3.4,0,0,0-2.74-1,5.55,5.55,0,0,0-5.35,4.77,4.31,4.31,0,0,0,.87,3.61,3.62,3.62,0,0,0,3,1.16A4.6,4.6,0,0,0,46.93,21l-.14.72a.38.38,0,0,0,.43.43h2.17a1,1,0,0,0,.72-.58l1.3-8.09c-.14-.14-.43-.43-.58-.43m-3.32,4.62A2.79,2.79,0,0,1,44.77,20a2.29,2.29,0,0,1-1.59-.57,3.09,3.09,0,0,1-.44-1.74,2.65,2.65,0,0,1,2.6-2.31,2.6,2.6,0,0,1,1.59.58,2.49,2.49,0,0,1,.58,1.73"/><path class="cls-1" d="M86.08,13.06H83.77c-.15,0-.44.15-.44.29l-.14.72L83,13.78a3.38,3.38,0,0,0-2.74-1A5.54,5.54,0,0,0,75,17.54a4.31,4.31,0,0,0,.86,3.61,3.64,3.64,0,0,0,3,1.16A4.63,4.63,0,0,0,82.18,21l-.15.72a.38.38,0,0,0,.44.43h2.16a1,1,0,0,0,.73-.58l1.3-8.09c-.15-.14-.29-.43-.58-.43m-3.32,4.62A2.8,2.8,0,0,1,80,20a2.31,2.31,0,0,1-1.59-.57A3.09,3.09,0,0,1,78,17.68,2.58,2.58,0,0,1,82.18,16a1.66,1.66,0,0,1,.58,1.73"/><path class="cls-2" d="M63.4,13.06H60.94a.76.76,0,0,0-.57.29l-3.18,4.91-1.45-4.62a.65.65,0,0,0-.72-.43H52.71c-.29,0-.43.28-.43.57l2.6,7.66-2.46,3.47c-.14.28,0,.72.29.72H55a.76.76,0,0,0,.58-.29l7.94-11.41c.44-.44.15-.87-.14-.87"/><path class="cls-1" d="M88.82,8.87l-2,13a.38.38,0,0,0,.43.44h2a1,1,0,0,0,.72-.58L92,9a.38.38,0,0,0-.43-.44H89.26c-.15-.14-.29,0-.44.29"/><path class="cls-2" d="M17.61,4.11c-1-1.16-2.89-1.74-5.49-1.74H4.9a1.25,1.25,0,0,0-1,.87L1,22.16a.66.66,0,0,0,.58.72H6.06l1.15-7.07v.28a1.25,1.25,0,0,1,1-.86h2.17c4.19,0,7.37-1.74,8.38-6.5V8.29h0a5,5,0,0,0-1.16-4.18"/><path class="cls-1" d="M18.62,8.29h0v.44c-1,4.91-4.19,6.5-8.38,6.5H8.08a1.22,1.22,0,0,0-1,.86L5.62,24.91a.53.53,0,0,0,.58.57H10a.81.81,0,0,0,.86-.72v-.14l.72-4.48v-.29a.81.81,0,0,1,.87-.72H13c3.61,0,6.5-1.45,7.22-5.78A5.29,5.29,0,0,0,19.49,9a1.51,1.51,0,0,0-.87-.73"/><path class="cls-3" d="M17.61,7.86c-.14,0-.29-.14-.43-.14a.53.53,0,0,1-.44-.15,7.78,7.78,0,0,0-1.87-.14H9.23a.53.53,0,0,0-.43.14.8.8,0,0,0-.43.72L7.21,15.81v.28a1.25,1.25,0,0,1,1-.86h2.17c4.19,0,7.37-1.74,8.38-6.5a.56.56,0,0,1,.14-.44c-.29-.14-.43-.28-.72-.28s-.43-.15-.58-.15"/></g></svg>