<?xml version="1.0" encoding="utf-8"?>
<!-- Generator: Adobe Illustrator 21.1.0, SVG Export Plug-In . SVG Version: 6.00 Build 0)  -->
<svg version="1.1" id="Слой_1" xmlns="http://www.w3.org/2000/svg" xmlns:xlink="http://www.w3.org/1999/xlink" x="0px" y="0px"
	 viewBox="0 0 96.8 101.5" style="enable-background:new 0 0 96.8 101.5;" xml:space="preserve">
<style type="text/css">
	.st0{display:none;}
	.st1{fill:none;stroke:#000000;stroke-width:2;stroke-miterlimit:10;}
</style>
<g id="Слой_2" class="st0">
</g>
<g id="Слой_3">
	<path class="st1" d="M78.4,10.7h13.5c1.8,0,3.2,1.4,3.2,3.2v82.7c0,1.8-1.4,3.2-3.2,3.2h-87c-1.8,0-3.2-1.4-3.2-3.2V13.8
		c0-1.8,1.4-3.2,3.2-3.2h13"/>
	<line class="st1" x1="27.5" y1="10.7" x2="68.8" y2="10.7"/>
	<path class="st1" d="M24,19.6h-2.9c-1.7,0-3-1.3-3-3V4.8c0-1.7,1.3-3,3-3H24c1.7,0,3,1.3,3,3v11.8C27,18.2,25.6,19.6,24,19.6z"/>
	<path class="st1" d="M75.2,19.6h-2.9c-1.7,0-3-1.3-3-3V4.8c0-1.7,1.3-3,3-3h2.9c1.7,0,3,1.3,3,3v11.8
		C78.2,18.2,76.8,19.6,75.2,19.6z"/>
	<path class="st1" d="M92.1,99.8H4.7c-1.7,0-3-1.3-3-3v-67h93.4v67C95.1,98.4,93.7,99.8,92.1,99.8z"/>
	<path d="M46.7,72.6L46.7,72.6c-0.4-0.4-0.2-1.3,0.5-2l20.5-20.5c0.7-0.7,1.6-0.9,2-0.5l0,0c0.4,0.4,0.2,1.3-0.5,2L48.6,72.1
		C47.9,72.8,47,73,46.7,72.6z"/>
	<path d="M48.1,72.6L48.1,72.6C47.7,73,47,73,46.5,72.5L33.2,59.2c-0.5-0.5-0.5-1.1-0.1-1.5l0,0c0.4-0.4,1.1-0.4,1.5,0.1L48,71.1
		C48.4,71.6,48.5,72.2,48.1,72.6z"/>
</g>
</svg>
