<svg id="layout" xmlns="http://www.w3.org/2000/svg" width="53" height="53" viewBox="0 0 53 53"><defs><style>.cls-1{fill:none;stroke:#BBBBBB;stroke-linecap:round;stroke-linejoin:round;stroke-width:0.53px;}</style></defs><title>icon_avatar_53pxdesktop</title><g id="group"><path class="cls-1" d="M26.44,5C15.61,5,14.66,12.06,16,20.67c-4.1.42-1.32,7.42,1,7.42a14.53,14.53,0,0,0,3.26,6.36c1.18,2.65.78,6-7,8.91A13.15,13.15,0,0,0,6.78,48H46.22"/><path class="cls-1" d="M26.51,5C37.34,5,38.29,12.06,37,20.67c4.11.42,1.33,7.42-1,7.42a14.36,14.36,0,0,1-3.25,6.36c-1.19,2.65-.78,6,7,8.91A13.34,13.34,0,0,1,46.17,48"/></g></svg>
