<?xml version="1.0" encoding="utf-8"?>
<!-- Generator: Adobe Illustrator 21.1.0, SVG Export Plug-In . SVG Version: 6.00 Build 0)  -->
<svg version="1.1" id="Слой_2" xmlns="http://www.w3.org/2000/svg" xmlns:xlink="http://www.w3.org/1999/xlink" x="0px" y="0px"
	 viewBox="0 0 99.8 64.3" style="enable-background:new 0 0 99.8 64.3;" xml:space="preserve">
<style type="text/css">
	.st0{fill:none;stroke:#000000;stroke-width:2;stroke-linecap:round;stroke-linejoin:round;stroke-miterlimit:10;}
	.st1{fill:none;stroke:#000000;stroke-width:2;stroke-miterlimit:10;}
</style>
<g>
	<path class="st0" d="M30,62.5V38.1c0-6.6,5.3-11.9,11.9-11.9h16.2c6.6,0,11.9,5.3,11.9,11.9v24.4"/>
	<line class="st0" x1="39.4" y1="62.5" x2="39.4" y2="42.7"/>
	<line class="st0" x1="60.6" y1="42.7" x2="60.6" y2="62.5"/>
	<line class="st1" x1="50" y1="46.2" x2="50" y2="49.7"/>
	<line class="st1" x1="50" y1="53.2" x2="50" y2="56.8"/>
	<path class="st1" d="M46.7,1.8h6.5c3.3,0,6,2.7,6,6v6.5c0,3.3-2.7,6-6,6h-6.5c-3.3,0-6-2.7-6-6V7.8C40.7,4.4,43.4,1.8,46.7,1.8z"/>
	<polygon class="st0" points="50,38.5 55.3,26.2 44.7,26.2 	"/>
</g>
<g>
	<path class="st0" d="M1.7,62.5V41.6C1.7,35,7,29.7,13.6,29.7h16.2c0.8,0,1.6,0.1,2.4,0.2"/>
	<line class="st0" x1="11.2" y1="62.5" x2="11.2" y2="46.2"/>
	<line class="st1" x1="21.8" y1="49.7" x2="21.8" y2="53.2"/>
	<line class="st1" x1="21.8" y1="56.8" x2="21.8" y2="60.3"/>
	<path class="st1" d="M18.5,5.3H25c3.3,0,6,2.7,6,6v6.5c0,3.3-2.7,6-6,6h-6.5c-3.3,0-6-2.7-6-6v-6.5C12.5,8,15.2,5.3,18.5,5.3z"/>
	<polygon class="st0" points="21.8,42.1 27,29.7 16.5,29.7 	"/>
</g>
<g>
	<path class="st0" d="M66.9,30.1c1-0.2,2-0.4,3-0.4h16.2C92.7,29.7,98,35,98,41.6v20.9"/>
	<line class="st0" x1="88.6" y1="46.2" x2="88.6" y2="62.5"/>
	<line class="st1" x1="78" y1="49.7" x2="78" y2="53.2"/>
	<line class="st1" x1="78" y1="56.8" x2="78" y2="60.3"/>
	<path class="st1" d="M74.7,5.3h6.5c3.3,0,6,2.7,6,6v6.5c0,3.3-2.7,6-6,6h-6.5c-3.3,0-6-2.7-6-6v-6.5C68.7,8,71.4,5.3,74.7,5.3z"/>
	<polygon class="st0" points="78,42.1 83.3,29.7 72.7,29.7 	"/>
</g>
</svg>
