<svg id="layout" xmlns="http://www.w3.org/2000/svg" width="21" height="21" viewBox="0 0 21 21"><defs><style>.cls-1,.cls-2{fill:none;stroke:#A746E1;stroke-linecap:round;stroke-width:0.41px;}.cls-1{stroke-miterlimit:10;}.cls-2{stroke-linejoin:round;}</style></defs><title>icon_avatar_in_circle_21px_desktop</title><g id="group"><path class="cls-1" d="M20.7,10.5A10.2,10.2,0,1,1,10.5.3,10.16,10.16,0,0,1,20.7,10.5Z"/><path class="cls-2" d="M10.52,2.2c-4.17,0-4.53,2.74-4,6.06-1.58.16-.51,2.86.37,2.85A5.56,5.56,0,0,0,8.1,13.55c.46,1,.31,2.33-2.7,3.44a5.52,5.52,0,0,0-1.76,1"/><path class="cls-2" d="M10.55,2.2c4.17,0,4.53,2.74,4,6.06,1.58.16.51,2.86-.37,2.85A5.46,5.46,0,0,1,13,13.55c-.46,1-.3,2.33,2.7,3.44a5.55,5.55,0,0,1,1.7,1"/></g></svg>
