<?xml version="1.0" encoding="utf-8"?>
<!-- Generator: Adobe Illustrator 21.1.0, SVG Export Plug-In . SVG Version: 6.00 Build 0)  -->
<svg version="1.1" id="Слой_2" xmlns="http://www.w3.org/2000/svg" xmlns:xlink="http://www.w3.org/1999/xlink" x="0px" y="0px"
	 viewBox="0 0 93.5 91.4" style="enable-background:new 0 0 93.5 91.4;" xml:space="preserve">
<style type="text/css">
	.st0{fill:none;stroke:#000000;stroke-width:2;stroke-linecap:round;stroke-miterlimit:10;}
	.st1{fill:none;stroke:#000000;stroke-width:2;stroke-miterlimit:10;}
	.st2{fill:none;stroke:#000000;stroke-width:2;stroke-linecap:round;stroke-linejoin:round;stroke-miterlimit:10;}
</style>
<path class="st0" d="M27.2,43.8H4.7c-1.7,0-3-1.3-3-3v-20c0-1.7,1.3-3,3-3h84c1.7,0,3,1.3,3,3v20c0,1.7-1.3,3-3,3h-2.5"/>
<rect x="30.7" y="8.8" class="st1" width="32" height="9"/>
<path class="st1" d="M63.7,8.8h-34c-1.7,0-3-1.3-3-3v-1c0-1.7,1.3-3,3-3h34c1.7,0,3,1.3,3,3v1C66.7,7.4,65.4,8.8,63.7,8.8z"/>
<path class="st1" d="M56.7,48.8h-20c-1.7,0-3-1.3-3-3v-3c0-1.7,1.3-3,3-3h20c1.7,0,3,1.3,3,3v3C59.7,47.4,58.4,48.8,56.7,48.8z"/>
<path class="st0" d="M47.7,88.8h-36c-1.7,0-3-1.3-3-3v-42"/>
<line class="st0" x1="86.7" y1="43.8" x2="86.7" y2="54.4"/>
<path class="st2" d="M55.7,89.6V68.9c0-5.6,4.5-10.1,10.1-10.1h13.8c5.6,0,10.1,4.5,10.1,10.1v20.8"/>
<line class="st2" x1="63.7" y1="89.6" x2="63.7" y2="72.8"/>
<line class="st2" x1="81.7" y1="72.8" x2="81.7" y2="89.6"/>
<line class="st1" x1="72.7" y1="75.8" x2="72.7" y2="78.8"/>
<line class="st1" x1="72.7" y1="81.8" x2="72.7" y2="84.8"/>
<path class="st1" d="M70.9,38h3.7c3.3,0,6,2.7,6,6v3.7c0,3.3-2.7,6-6,6h-3.7c-3.3,0-6-2.7-6-6V44C64.9,40.7,67.6,38,70.9,38z"/>
<polygon class="st2" points="72.7,69.3 77.2,58.8 68.2,58.8 "/>
</svg>
