<?xml version="1.0" encoding="utf-8"?>
<!-- Generator: Adobe Illustrator 21.1.0, SVG Export Plug-In . SVG Version: 6.00 Build 0)  -->
<svg version="1.1" id="Слой_2" xmlns="http://www.w3.org/2000/svg" xmlns:xlink="http://www.w3.org/1999/xlink" x="0px" y="0px"
	 viewBox="0 0 100.9 100.9" style="enable-background:new 0 0 100.9 100.9;" xml:space="preserve">
<style type="text/css">
	.st0{fill:none;stroke:#000000;stroke-width:2;stroke-linejoin:round;stroke-miterlimit:10;}
	.st1{fill:none;stroke:#000000;stroke-width:2;stroke-linecap:round;stroke-linejoin:round;stroke-miterlimit:10;}
	.st2{fill:none;stroke:#000000;stroke-width:2;stroke-miterlimit:10;}
</style>
<path class="st0" d="M93.6,41.3l-5.9-1c-0.9-3.2-2.2-6.3-3.8-9.2l3.4-4.8c1.8-2.4,2.2-5.7,0-7.9l-2.5-2.5l-2.6-2.6
	c-2.2-2.2-5.5-1.8-7.9,0l-4.9,3.5c-2.9-1.6-6-2.9-9.2-3.8l-1-5.7c-0.4-3-2.5-5.6-5.6-5.6h-7.2c-3.1,0-5.2,2.6-5.6,5.6l-1,5.8
	c-3.2,0.9-6.2,2.1-9,3.8l-4.5-3.2c-2.4-1.8-5.7-2.2-7.9,0l-2.6,2.6l-2.5,2.5c-2.2,2.2-1.8,5.5,0,7.9l3.2,4.5c0,0.1-0.1,0.1-0.1,0.1
	c-1.6,2.8-2.9,5.8-3.8,9c0,0.1,0,0.1,0,0.2l-5.4,0.9c-3,0.4-5.6,2.5-5.6,5.6v7.2c0,3.1,2.6,5.2,5.6,5.6l5.4,0.9
	c0.9,3.2,2.1,6.3,3.8,9.2c0,0.1,0.1,0.1,0.1,0.1l-3.2,4.5c-1.8,2.4-2.2,5.7,0,7.9l2.5,2.5l2.6,2.6c2.2,2.2,5.5,1.8,7.9,0l4.4-3.2
	c2.9,1.7,6,3,9.2,3.9l0,0l0.9,5.6c0.4,3,2.5,5.6,5.6,5.6h7.2c3.1,0,5.2-2.6,5.6-5.6l0.9-5.5c3.4-0.9,6.6-2.2,9.6-4l4.8,3.5
	c2.4,1.8,5.7,2.2,7.9,0L85,85l2.5-2.5c2.2-2.2,1.8-5.5,0-7.9L84,69.7c0-0.1,0.1-0.1,0.1-0.2c1.5-2.7,2.7-5.7,3.6-8.8
	c0-0.1,0-0.1,0-0.1l5.9-1c3-0.4,5.6-2.5,5.6-5.6v-7.2C99.2,43.8,96.6,41.7,93.6,41.3z"/>
<g>
	<path class="st1" d="M35.1,72V53.2c0-5.1,4.1-9.2,9.2-9.2h12.4c5.1,0,9.2,4.1,9.2,9.2V72"/>
	<line class="st1" x1="42.3" y1="72" x2="42.3" y2="56.7"/>
	<line class="st1" x1="58.6" y1="56.7" x2="58.6" y2="72"/>
	<line class="st2" x1="50.5" y1="59.5" x2="50.5" y2="62.2"/>
	<line class="st2" x1="50.5" y1="64.9" x2="50.5" y2="67.6"/>
	<path class="st2" d="M49.3,25.3h2.3c3.3,0,6,2.7,6,6v2.3c0,3.3-2.7,6-6,6h-2.3c-3.3,0-6-2.7-6-6v-2.3C43.3,28,46,25.3,49.3,25.3z"
		/>
	<polygon class="st1" points="50.5,53.6 54.5,44.1 46.4,44.1 	"/>
</g>
</svg>
