<?xml version="1.0" encoding="utf-8"?>
<!-- Generator: Adobe Illustrator 21.1.0, SVG Export Plug-In . SVG Version: 6.00 Build 0)  -->
<svg version="1.1" xmlns="http://www.w3.org/2000/svg" xmlns:xlink="http://www.w3.org/1999/xlink" x="0px" y="0px"
	 viewBox="0 0 89.9 99.4" style="enable-background:new 0 0 89.9 99.4;" xml:space="preserve">
<style type="text/css">
	.st0{display:none;}
	.st1{fill:none;stroke:#000000;stroke-width:2;stroke-linecap:round;stroke-linejoin:round;stroke-miterlimit:10;}
	.st2{fill:none;stroke:#000000;stroke-width:2;stroke-miterlimit:10;}
	.st3{fill:none;stroke:#000000;stroke-width:2;stroke-linecap:round;stroke-miterlimit:10;}
</style>
<g id="Layer_1" class="st0">
	
		<image style="display:inline;overflow:visible;opacity:0.45;" width="148" height="127" xlink:href="CBC39267.jpg"  transform="matrix(0.8559 0 0 0.8559 -17.1667 -4.4093)">
	</image>
</g>
<g id="Слой_2">
	<path class="st1" d="M78.2,11.7c-14.1-14.1-36.9-14.1-51,0C13.2,25.8,5.6,56.2,19.7,70.3c14.1,14.1,44.4,6.5,58.5-7.5
		C92.3,48.6,92.3,25.8,78.2,11.7z M18.9,43.4c-0.9,8.7,0.5,17.1,5.1,23.2 M74.5,16.7c-4.2-4.2-9.3-7.2-14.6-8.9 M56.8,41.1v15h-15
		v-15h-7.6l15.1-18.8l15.1,18.8H56.8z"/>
	<path class="st2" d="M17.5,74.2l-1.7-1.7c-0.5-0.5-2-1.3-1.6-1.8l3-1.4c0.9-0.5,1.2-0.4,1.7,0.1l1.7,1.7c0.5,0.5,0.5,1,0.1,1.7
		l-1.4,3C18.8,76.3,18,74.7,17.5,74.2z"/>
	<path class="st3" d="M21.3,73.5L16.9,69c0,0-8.3-5.4-14.1,3.1C-2,79.4,3.6,90,12.8,88.3c6.7-1.2,15.3-6.2,20.1-1.3
		c4.1,4.2-0.2,11.5-0.2,11.5"/>
</g>
</svg>
