<?xml version="1.0" encoding="utf-8"?>
<!-- Generator: Adobe Illustrator 21.1.0, SVG Export Plug-In . SVG Version: 6.00 Build 0)  -->
<svg version="1.1" id="Слой_1" xmlns="http://www.w3.org/2000/svg" xmlns:xlink="http://www.w3.org/1999/xlink" x="0px" y="0px"
	 viewBox="0 0 101.6 96.1" style="enable-background:new 0 0 101.6 96.1;" xml:space="preserve">
<style type="text/css">
	.st0{display:none;}
	.st1{fill:none;stroke:#000000;stroke-width:2;stroke-linecap:round;stroke-miterlimit:10;}
	.st2{fill:none;stroke:#000000;stroke-width:2;stroke-miterlimit:10;}
	.st3{fill:none;stroke:#000000;stroke-width:2;stroke-linecap:round;stroke-linejoin:round;stroke-miterlimit:10;}
</style>
<g id="Слой_1_1_" class="st0">
</g>
<g id="Слой_2">
	<path class="st1" d="M9.5,45.4v13.8c0,2.1-1.7,3.9-3.9,3.9l0,0c-2.1,0-3.9-1.7-3.9-3.9V45.4c0,0,0-10.4,3.5-12.7
		c7.2-4.2,22-2.7,25.2-0.8s5.3,4.4,8,6s5.9,2.4,11.2,1.1c6.1-1.4,7.5,6.1,0.2,7.5c-5.6,1-9.6,0.6-12.7-0.3c-2.3-0.7-4.4-1.4-7.1-4.4
		c-0.2-0.2-0.4-0.4-0.6-0.5c-0.6-0.4-1.4,0-1.4,0.8l0.2,15.5V90c0,5.6-9.4,5.6-9.4,0V64.8"/>
	<path class="st2" d="M18.9,64.8v25.4c0,5.6-9.4,5.6-9.4,0V57.8"/>
	<path class="st3" d="M16.8,4.8c0-1.7,1.4-3,3-3h73.3c1.7,0,3,1.3,3,3v50c0,1.7-1.3,3-3,3H47.3"/>
	<path class="st1" d="M45,57.8h51.8c1.7,0,3,1.3,3,3v2.5c0,1.7-1.3,3-3,3H34.3"/>
	<path class="st2" d="M69,23.8L53.8,39c-0.1,0.1-0.3,0.1-0.3,0l0,0c-0.1-0.1-0.1-0.3,0-0.3l15.3-15.3c0.1-0.1,0.3-0.1,0.3,0l0,0
		C69.1,23.5,69.1,23.7,69,23.8z"/>
	<line class="st2" x1="18.9" y1="44.8" x2="18.9" y2="47.8"/>
	<line class="st2" x1="18.9" y1="50.8" x2="18.9" y2="53.8"/>
	<path class="st2" d="M17,10h3.7c3.3,0,6,2.7,6,6v3.7c0,3.3-2.7,6-6,6H17c-3.3,0-6-2.7-6-6V16C11,12.7,13.7,10,17,10z"/>
	<polygon class="st3" points="18.9,41.3 23.4,30.8 14.4,30.8 	"/>
</g>
</svg>
