<?xml version="1.0" encoding="utf-8"?>
<!-- Generator: Adobe Illustrator 21.1.0, SVG Export Plug-In . SVG Version: 6.00 Build 0)  -->
<svg version="1.1" id="Слой_3" xmlns="http://www.w3.org/2000/svg" xmlns:xlink="http://www.w3.org/1999/xlink" x="0px" y="0px"
	 viewBox="0 0 75 99.1" style="enable-background:new 0 0 75 99.1;" xml:space="preserve">
<style type="text/css">
	.st0{fill:none;stroke:#000000;stroke-width:2;stroke-linecap:round;stroke-linejoin:round;stroke-miterlimit:10;}
</style>
<g>
	<path class="st0" d="M1,61.6c0-12.7,8.4-23.9,16.6-32.4c10.8-11.5,12-21.3,9.9-28c19.9,11,22,28,23.1,33.3
		c2.5-5.7,3.5-10.8,3.6-14.2c11.4,9.5,19.7,28.2,19.7,41.2C73.9,81.7,57.6,98,37.4,98S1,81.7,1,61.6z"/>
	<path class="st0" d="M14.1,71.4c0-10,6-16.8,8.6-20c2.7-2.9,6.4-6.8,13-12.7c0,7.3,2.8,12.8,7.8,16.7c1.9-3,2.1-6.4,2.1-8.4
		c6.8,5.7,11.7,16.7,11.7,24.5c0,11.9-9.7,21.6-21.6,21.6S14.1,83.3,14.1,71.4z"/>
	<path class="st0" d="M31,67.6c-0.6,4.1,0.9,8.9,6.5,10.5c4.4,0.7,5.4-3.5,5.5-5c3.3,2.6,3.6,5.9,3.6,6.6c0,4-3.8,8.4-10.9,8.4
		C24.2,88.1,16.5,75.4,31,67.6z"/>
</g>
</svg>
