<?xml version="1.0" encoding="utf-8"?>
<!-- Generator: Adobe Illustrator 21.1.0, SVG Export Plug-In . SVG Version: 6.00 Build 0)  -->
<svg version="1.1" id="Слой_2" xmlns="http://www.w3.org/2000/svg" xmlns:xlink="http://www.w3.org/1999/xlink" x="0px" y="0px"
	 viewBox="0 0 91.4 98.5" style="enable-background:new 0 0 91.4 98.5;" xml:space="preserve">
<style type="text/css">
	.st0{fill:none;stroke:#000000;stroke-width:2;stroke-miterlimit:10;}
	.st1{fill:none;stroke:#000000;stroke-width:2;stroke-linecap:round;stroke-linejoin:round;stroke-miterlimit:10;}
</style>
<g>
	<path class="st0" d="M75.4,30.5v5.9c0,13.7-11.1,24.8-24.8,24.8H27.1C13.5,61.1,2.4,50,2.4,36.4v-9.9c0-13.7,11.1-24.8,24.8-24.8
		h20.3"/>
	<polyline class="st1" points="2.4,31.4 75.4,31.4 82.9,21.3 89.6,21.3 	"/>
	<polyline class="st1" points="37.2,1.8 37.2,30.5 47.7,1.8 	"/>
	<path class="st1" d="M75.2,39.5c0,0-30.1,0-32.8,0s-5.3-2-5.3-8.9"/>
	<line class="st0" x1="54.2" y1="75" x2="24.3" y2="61"/>
	<line class="st0" x1="23.7" y1="75" x2="53.6" y2="61"/>
	<line class="st0" x1="52.3" y1="79.1" x2="24.8" y2="79.1"/>
	<circle class="st0" cx="14.2" cy="84.3" r="12.5"/>
	<circle class="st0" cx="14.2" cy="84.2" r="6.8"/>
	<circle class="st0" cx="63.4" cy="84.3" r="12.5"/>
	<circle class="st0" cx="63.4" cy="84.2" r="6.8"/>
</g>
</svg>
