<?xml version="1.0" encoding="utf-8"?>
<!-- Generator: Adobe Illustrator 21.1.0, SVG Export Plug-In . SVG Version: 6.00 Build 0)  -->
<svg version="1.1" id="Слой_3" xmlns="http://www.w3.org/2000/svg" xmlns:xlink="http://www.w3.org/1999/xlink" x="0px" y="0px"
	 viewBox="0 0 95.4 98.9" style="enable-background:new 0 0 95.4 98.9;" xml:space="preserve">
<style type="text/css">
	.st0{fill:none;stroke:#000000;stroke-width:2;stroke-linecap:round;stroke-linejoin:round;stroke-miterlimit:10;}
</style>
<rect x="73.8" y="19.6" class="st0" width="19.8" height="77.5"/>
<rect x="34.5" y="47.6" class="st0" width="39.4" height="49.5"/>
<polygon class="st0" points="34.5,47.6 34.5,57.1 21.4,57.1 21.4,12.7 27.9,12.7 27.9,1.8 47.6,1.8 47.6,12.7 54.2,12.7 54.2,47.6 
	"/>
<rect x="21.4" y="64" class="st0" width="13.1" height="33.1"/>
<rect x="1.7" y="57.1" class="st0" width="32.8" height="40.1"/>
<rect x="62.3" y="40.9" class="st0" width="6.6" height="6.6"/>
<rect x="5" y="50.5" class="st0" width="9.8" height="6.6"/>
<rect x="78.7" y="12.7" class="st0" width="10" height="6.9"/>
<line class="st0" x1="34.5" y1="7.9" x2="34.5" y2="12.8"/>
<line class="st0" x1="34.5" y1="19.6" x2="34.5" y2="47.4"/>
<line class="st0" x1="41" y1="19.6" x2="41" y2="47.4"/>
<line class="st0" x1="47.6" y1="19.6" x2="47.6" y2="47.4"/>
<line class="st0" x1="41" y1="53.9" x2="41" y2="95.8"/>
<line class="st0" x1="47.6" y1="53.9" x2="47.6" y2="95.8"/>
<line class="st0" x1="54.2" y1="53.9" x2="54.2" y2="95.8"/>
<line class="st0" x1="60.7" y1="53.9" x2="60.7" y2="95.8"/>
<line class="st0" x1="67.3" y1="53.9" x2="67.3" y2="95.8"/>
<line class="st0" x1="27.9" y1="19.6" x2="27.9" y2="55.5"/>
<line class="st0" x1="41" y1="7.9" x2="41" y2="12.8"/>
<line class="st0" x1="80.4" y1="25.5" x2="80.4" y2="30.4"/>
<line class="st0" x1="86.9" y1="25.5" x2="86.9" y2="30.4"/>
<line class="st0" x1="80.4" y1="35.3" x2="80.4" y2="40.2"/>
<line class="st0" x1="86.9" y1="35.3" x2="86.9" y2="40.2"/>
<line class="st0" x1="80.4" y1="45.2" x2="80.4" y2="50.1"/>
<line class="st0" x1="86.9" y1="45.2" x2="86.9" y2="50.1"/>
<line class="st0" x1="80.4" y1="55" x2="80.4" y2="59.9"/>
<line class="st0" x1="86.9" y1="55" x2="86.9" y2="59.9"/>
<line class="st0" x1="80.4" y1="64.8" x2="80.4" y2="69.7"/>
<line class="st0" x1="27.9" y1="70.5" x2="32.8" y2="70.5"/>
<line class="st0" x1="14.8" y1="67.7" x2="14.8" y2="62.8"/>
<line class="st0" x1="8.3" y1="67.7" x2="8.3" y2="62.8"/>
<line class="st0" x1="14.8" y1="77.7" x2="14.8" y2="72.8"/>
<line class="st0" x1="8.3" y1="77.7" x2="8.3" y2="72.8"/>
<line class="st0" x1="14.8" y1="87.7" x2="14.8" y2="82.8"/>
<line class="st0" x1="8.3" y1="87.7" x2="8.3" y2="82.8"/>
<line class="st0" x1="27.9" y1="77.1" x2="32.8" y2="77.1"/>
<line class="st0" x1="27.9" y1="83.6" x2="32.8" y2="83.6"/>
<line class="st0" x1="27.9" y1="90.2" x2="32.8" y2="90.2"/>
<line class="st0" x1="86.9" y1="64.8" x2="86.9" y2="69.7"/>
<line class="st0" x1="80.4" y1="74.7" x2="80.4" y2="79.5"/>
<line class="st0" x1="86.9" y1="74.7" x2="86.9" y2="79.5"/>
<line class="st0" x1="80.4" y1="84.5" x2="80.4" y2="89.4"/>
<line class="st0" x1="86.9" y1="84.5" x2="86.9" y2="89.4"/>
</svg>
