<svg id="layout" xmlns="http://www.w3.org/2000/svg" width="28" height="28" viewBox="0 0 28 28"><defs><style>.cls-1{fill:#b4d826;}</style></defs><title>icon_close_28px_mobile</title><g id="group"><path class="cls-1" d="M5.05,1.08,26.92,23A2.68,2.68,0,0,1,27,26.74l-.09.1h0a2.68,2.68,0,0,1-3.79.09l-.1-.09h0L1.08,5.05A2.68,2.68,0,0,1,1,1.26l.09-.1h0A2.86,2.86,0,0,1,5.05,1.08Z"/><path class="cls-1" d="M1.08,23,23,1.08A2.68,2.68,0,0,1,26.74,1l.1.09h0a2.68,2.68,0,0,1,.09,3.79l-.09.1h0l-21.79,22A2.68,2.68,0,0,1,1.26,27l-.1-.09h0A2.86,2.86,0,0,1,1.08,23Z"/></g></svg>