<?xml version="1.0" encoding="utf-8"?>
<!-- Generator: Adobe Illustrator 21.1.0, SVG Export Plug-In . SVG Version: 6.00 Build 0)  -->
<svg version="1.1" id="Слой_2" xmlns="http://www.w3.org/2000/svg" xmlns:xlink="http://www.w3.org/1999/xlink" x="0px" y="0px"
	 viewBox="0 0 99.8 99.3" style="enable-background:new 0 0 99.8 99.3;" xml:space="preserve">
<style type="text/css">
	.st0{fill:none;stroke:#000000;stroke-width:2;stroke-linecap:round;stroke-linejoin:round;stroke-miterlimit:10;}
</style>
<g>
	<path class="st0" d="M49.8,5.8c0,0-30.8,0-32.4,0s-2.8,1.2-3,2.6c-0.2,0.9-1.8,14.3-2.9,23.1c-0.6,4.5-1,7.8-1,7.8"/>
	<polyline class="st0" points="11.4,31.5 5.2,31.5 5.2,21 	"/>
	<line class="st0" x1="24.3" y1="5.8" x2="24.3" y2="1.8"/>
	<path class="st0" d="M20.7,53.6c0,0-1.6-6.2-2.3-8.4c-0.6-2.3-2.1-4-8-4c-4.8,0-4.4,0-4.4,0s-4.3-0.1-4.3,4.5s0,25.7,0,25.7
		s0,0.1,2.3,0.1"/>
	<line class="st0" x1="17.6" y1="31.5" x2="49.8" y2="31.5"/>
	<line class="st0" x1="29.2" y1="79.8" x2="49.8" y2="79.8"/>
	<line class="st0" x1="43.3" y1="51" x2="43.3" y2="40.5"/>
	<line class="st0" x1="49.9" y1="51" x2="49.9" y2="40.5"/>
	<line class="st0" x1="1.8" y1="59.7" x2="49.6" y2="59.7"/>
	<line class="st0" x1="1.8" y1="71.4" x2="49.6" y2="71.4"/>
	<path class="st0" d="M22.9,77.8v16.4c0,1.9-1.5,3.4-3.4,3.4H7.4C5.5,97.6,4,96,4,94.2V72.8"/>
	<circle class="st0" cx="31.4" cy="45.7" r="5.4"/>
	<path class="st0" d="M50,5.8c0,0,30.8,0,32.4,0s2.8,1.2,3,2.6c0.2,0.9,1.8,14.3,2.9,23.1c0.6,4.5,1,7.8,1,7.8"/>
	<polyline class="st0" points="88.4,31.5 94.6,31.5 94.6,21 	"/>
	<line class="st0" x1="75.5" y1="5.8" x2="75.5" y2="1.8"/>
	<path class="st0" d="M79.1,53.6c0,0,1.6-6.2,2.3-8.4c0.6-2.3,2.1-4,8-4c4.8,0,4.4,0,4.4,0s4.3-0.1,4.3,4.5s0,25.7,0,25.7
		s0,0.1-2.3,0.1"/>
	<line class="st0" x1="82.2" y1="31.5" x2="50" y2="31.5"/>
	<line class="st0" x1="70.6" y1="79.8" x2="50" y2="79.8"/>
	<line class="st0" x1="56.5" y1="51" x2="56.5" y2="40.5"/>
	<line class="st0" x1="98" y1="59.7" x2="50.1" y2="59.7"/>
	<line class="st0" x1="97.9" y1="71.4" x2="50.1" y2="71.4"/>
	<path class="st0" d="M76.8,77.8v16.4c0,1.9,1.5,3.4,3.4,3.4h12.1c1.9,0,3.4-1.5,3.4-3.4V72.8"/>
	<circle class="st0" cx="68.3" cy="45.7" r="5.4"/>
</g>
</svg>
