<?xml version="1.0" encoding="utf-8"?>
<!-- Generator: Adobe Illustrator 21.1.0, SVG Export Plug-In . SVG Version: 6.00 Build 0)  -->
<svg version="1.1" id="Слой_2" xmlns="http://www.w3.org/2000/svg" xmlns:xlink="http://www.w3.org/1999/xlink" x="0px" y="0px"
	 viewBox="0 0 99.7 91.2" style="enable-background:new 0 0 99.7 91.2;" xml:space="preserve">
<style type="text/css">
	.st0{fill:none;stroke:#000000;stroke-width:2;stroke-linecap:round;stroke-linejoin:round;stroke-miterlimit:10;}
</style>
<path class="st0" d="M47.3,10.1C46.5,1.3,54.6,1.5,59.9,1l1.3,0c4.7-0.4,7.5,3,7.9,7.6l3.8,39.7c0.4,4.7-3,8.8-7.6,9.2l0,0
	c-4.7,0.4-8.8-3-9.2-7.6l-2.8-29.3"/>
<path class="st0" d="M8.1,90.2L1,17.8c-0.1-1.1,0.7-2.1,1.8-2.2l86.2-8.4c1.1-0.1,2.1,0.7,2.2,1.8l7.4,75.5c0.1,1.1-0.7,2.1-1.8,2.2
	l-36.7,3.6"/>
<polygon class="st0" points="17,78 8.1,90.2 60.1,90.2 "/>
</svg>
