<?xml version="1.0" encoding="utf-8"?>
<!-- Generator: Adobe Illustrator 21.1.0, SVG Export Plug-In . SVG Version: 6.00 Build 0)  -->
<svg version="1.1" id="Слой_3" xmlns="http://www.w3.org/2000/svg" xmlns:xlink="http://www.w3.org/1999/xlink" x="0px" y="0px"
	 viewBox="0 0 98.7 99.3" style="enable-background:new 0 0 98.7 99.3;" xml:space="preserve">
<style type="text/css">
	.st0{fill:none;stroke:#000000;stroke-width:2;stroke-linecap:round;stroke-linejoin:round;stroke-miterlimit:10;}
</style>
<g>
	<path class="st0" d="M49.2,1.7H37.7c0,0-5.4,0.2-8.1,3.9S21,18.7,21,18.7s-0.7,0.8-1.5,1.2c-1.4,0.6-12.6,5.8-12.6,5.8
		s-5.2,2.4-5.2,6.7c0,3.8,0,58.3,0,58.3S1.3,97.5,9,97.5c8.2,0,40.2,0,40.2,0"/>
	<path class="st0" d="M49.4,1.7h11.5c0,0,5.4,0.2,8.1,3.9s8.6,13.1,8.6,13.1s0.7,0.8,1.5,1.2c1.4,0.6,12.6,5.8,12.6,5.8
		s5.2,2.4,5.2,6.7c0,3.8,0,58.3,0,58.3s0.4,6.8-7.3,6.8c-8.2,0-40.2,0-40.2,0"/>
	<line class="st0" x1="20.5" y1="19.3" x2="20.5" y2="90.7"/>
	<line class="st0" x1="39.9" y1="45.3" x2="39.9" y2="96.7"/>
	<line class="st0" x1="58.9" y1="45.3" x2="58.9" y2="96.7"/>
	<line class="st0" x1="78.1" y1="19.3" x2="78.1" y2="90.7"/>
	<circle class="st0" cx="49.2" cy="50.8" r="3.3"/>
	<circle class="st0" cx="49.2" cy="67.2" r="3.3"/>
	<circle class="st0" cx="49.2" cy="83.7" r="3.3"/>
	<path class="st0" d="M49.2,25h-6.1c0,0-9.8-4.3-16-3.6v19.5c0,0,8.1-0.1,15.8-3.5h6.5"/>
	<path class="st0" d="M49.4,25h6.1c0,0,9.8-4.3,16-3.6v19.5c0,0-8.1-0.1-15.8-3.5h-6.5"/>
	<g>
		<polyline class="st0" points="33.6,10.5 42.7,18.4 42.7,31.1 42.7,37.4 		"/>
		<line class="st0" x1="35.9" y1="31.1" x2="42.7" y2="31.1"/>
	</g>
	<g>
		<polyline class="st0" points="64.6,10.5 55.5,18.4 55.5,31.1 55.5,37.4 		"/>
		<line class="st0" x1="62.3" y1="31.1" x2="55.5" y2="31.1"/>
	</g>
</g>
</svg>
